<!DOCTYPE svg PUBLIC "-//W3C//DTD SVG 1.1//EN" "http://www.w3.org/Graphics/SVG/1.1/DTD/svg11.dtd">
<!-- Uploaded to: SVG Repo, www.svgrepo.com, Transformed by: SVG Repo Mixer Tools -->
<svg fill="#00aaff" width="800px" height="800px" viewBox="0 0 96.00 96.00" xmlns="http://www.w3.org/2000/svg" stroke="#00aaff" stroke-width="0.0009600000000000001" transform="matrix(1, 0, 0, 1, 0, 0)rotate(0)">
<g id="SVGRepo_bgCarrier" stroke-width="0"/>
<g id="SVGRepo_tracerCarrier" stroke-linecap="round" stroke-linejoin="round" stroke="#CCCCCC" stroke-width="3.2640000000000002"/>
<g id="SVGRepo_iconCarrier"> <title/> <g> <path d="M43.7578,61.7578a5.9994,5.9994,0,1,0,8.4844,8.4844l18-18a5.9979,5.9979,0,0,0,0-8.4844l-18-18a5.9994,5.9994,0,0,0-8.4844,8.4844L51.5156,42H6A6,6,0,0,0,6,54H51.5156Z"/> <path d="M90,0H30a5.9966,5.9966,0,0,0-6,6V18a6,6,0,0,0,12,0V12H84V84H36V78a6,6,0,0,0-12,0V90a5.9966,5.9966,0,0,0,6,6H90a5.9966,5.9966,0,0,0,6-6V6A5.9966,5.9966,0,0,0,90,0Z"/> </g> </g>
</svg>